<svg id="Layer_1" data-name="Layer 1" xmlns="http://www.w3.org/2000/svg" viewBox="0 0 250 250"><defs><style>.cls-1{fill:#983283;}.cls-1,.cls-2,.cls-4{stroke:#1a1a1a;stroke-linecap:round;stroke-linejoin:round;stroke-width:6px;}.cls-2,.cls-6{fill:none;}.cls-3{fill:#1a1a1a;}.cls-4{fill:#6ac3a5;}.cls-5{fill:#fff;}</style></defs><path class="cls-1" d="M170.72,195.48a12.3,12.3,0,0,1-12.35,12.25H91.53a12.3,12.3,0,0,1-12.25-12.35V54.26A12.31,12.31,0,0,1,91.63,42h66.84a12.3,12.3,0,0,1,12.25,12.35Z"/><line class="cls-2" x1="120.93" y1="55.64" x2="142.24" y2="55.72"/><line class="cls-2" x1="91.96" y1="191.66" x2="158.04" y2="191.92"/><circle class="cls-3" cx="110.66" cy="55.41" r="3.03"/><polygon class="cls-4" points="159.72 88.74 186.87 88.74 186.86 74.94 212.44 100.54 186.87 126.3 186.87 112.54 159.81 112.54 159.72 88.74"/><path class="cls-5" d="M125,141.76c-3.76,0-6.06-2.08-6.07-6.4l-8.92-.12c0,8,4.13,13,11.12,14.36l-.08,5.22,7.22.1.08-5.15c7.38-1.2,11.56-6.5,11.66-13.1.22-15.11-20-15.66-19.83-24,0-2.74,2-4.5,5.24-4.46s5.28,1.93,5.29,5.77l8.93.13c0-7.35-3.86-12.35-10.57-13.68l.08-5.22-7.22-.09-.08,5.22c-6.54,1.22-10.43,5.9-10.52,12-.21,14.49,19.74,15.45,19.62,24.17C130.89,139.57,129,141.81,125,141.76Z"/><polygon class="cls-4" points="90.45 136.18 63.31 136.18 63.31 122.38 37.74 147.97 63.31 173.73 63.31 159.98 90.36 159.98 90.45 136.18"/><rect class="cls-6" width="20" height="50"/></svg>