<?xml version="1.0" encoding="utf-8"?>
<!-- Generator: Adobe Illustrator 28.1.0, SVG Export Plug-In . SVG Version: 6.00 Build 0)  -->
<svg version="1.1" id="Layer_1" xmlns="http://www.w3.org/2000/svg" xmlns:xlink="http://www.w3.org/1999/xlink" x="0px" y="0px"
	 viewBox="0 0 300 200" style="enable-background:new 0 0 300 200;" xml:space="preserve">
<style type="text/css">
	.st0{fill:#FFFFFF;stroke:#013466;stroke-width:6;stroke-linecap:round;stroke-linejoin:round;}
	.st1{fill:none;stroke:#1A1A1A;stroke-width:6;stroke-linecap:round;stroke-linejoin:round;}
	.st2{fill:#1A1A1A;}
	.st3{fill:#013466;}
</style>
<path class="st0" d="M195.63,170.61c-0.03,6.79-5.56,12.28-12.35,12.25l0,0h-66.84c-6.79-0.03-12.28-5.56-12.25-12.35l0,0V29.39
	c0.03-6.79,5.56-12.28,12.35-12.26h66.84c6.79,0.03,12.28,5.56,12.25,12.35l0,0V170.61z"/>
<line class="st1" x1="145.84" y1="30.77" x2="167.15" y2="30.85"/>
<circle class="st2" cx="135.57" cy="30.54" r="3.03"/>
<polygon class="st0" points="184.63,63.87 211.78,63.87 211.77,50.07 237.35,75.67 211.78,101.43 211.78,87.67 184.72,87.67 "/>
<path class="st3" d="M149.91,116.89c-3.76,0-6.06-2.08-6.07-6.4l-8.92-0.12c0,8,4.13,13,11.12,14.36l-0.08,5.22l7.22,0.1l0.08-5.15
	c7.38-1.2,11.56-6.5,11.66-13.1c0.22-15.11-20-15.66-19.83-24c0-2.74,2-4.5,5.24-4.46s5.28,1.93,5.29,5.77l8.93,0.13
	c0-7.35-3.86-12.35-10.57-13.68l0.08-5.22l-7.22-0.09l-0.08,5.22c-6.54,1.22-10.43,5.9-10.52,12
	c-0.21,14.49,19.74,15.45,19.62,24.17C155.8,114.7,153.91,116.94,149.91,116.89z"/>
<polygon class="st0" points="115.36,111.31 88.22,111.31 88.22,97.51 62.65,123.1 88.22,148.86 88.22,135.11 115.27,135.11 "/>
</svg>
