<?xml version="1.0" encoding="UTF-8"?>
<svg id="Layer_1" data-name="Layer 1" xmlns="http://www.w3.org/2000/svg" viewBox="0 0 144.46 175.2">
  <defs>
    <style>
      .cls-1 {
        fill: #fefefe;
      }

      .cls-1, .cls-2, .cls-3 {
        stroke-width: 0px;
      }

      .cls-2 {
        fill: #fdfdfe;
      }

      .cls-3 {
        fill: #013466;
      }
    </style>
  </defs>
  <path class="cls-3" d="M111.42,153.49c-10.62,9.82-23.16,16.44-36.75,21.19-1.83.64-3.47.71-5.31.16-28.43-8.36-47.39-27.21-59.61-53.6C2.26,105.07-.63,88.13.11,70.36c.5-12.01.21-24.06.16-36.09,0-1.92.5-2.89,2.31-3.68C25.25,20.61,47.9,10.57,70.53.48c1.45-.65,2.61-.65,4.06,0,22.42,10.07,44.86,20.11,67.33,30.07,1.77.78,2.37,1.68,2.34,3.65-.14,9.02.21,27.49.21,36.51,0,18.79-3.66,35.87-10.23,50.59-5.63,12.6-13.39,23.46-22.81,32.17ZM72.01,87.54v70.95c13.25-3.17,25.86-11.62,35.51-23.92,10.29-13.11,16.4-28.03,19.87-44.3.29-1.37-.77-2.66-2.17-2.66h-53.27V17.11c-18.45,8.27-36.45,16.35-54.48,24.37-1.23.55-1.43,1.29-1.43,2.46.03,13.87.05,27.75-.02,41.62,0,1.72.57,2.04,2.14,2.04,17.95-.06,35.9-.05,53.85-.06Z"/>
  <path class="cls-1" d="M72.01,87.54c-17.95.01-35.9,0-53.85.06-1.58,0-2.15-.32-2.14-2.04.07-13.87.05-27.75.02-41.62,0-1.17.2-1.92,1.43-2.46,17.31-7.7,34.6-15.46,52.28-23.39,1.03-.46,2.19.29,2.19,1.42v68.1l.07-.07Z"/>
  <path class="cls-2" d="M71.94,87.61h54.4c.82,0,1.44.76,1.28,1.56-3.43,16.7-9.57,32-20.1,45.4-9.66,12.29-22.26,20.75-35.51,23.92v-70.95l-.07.07Z"/>
</svg>